<svg xmlns="http://www.w3.org/2000/svg" viewBox="0 0 400 180">
  <rect width="400" height="180" fill="#0a1628"/>
  <ellipse cx="200" cy="90" rx="140" ry="80" fill="#a78bfa" opacity="0.05"/>
  <!-- Root module (top) -->
  <rect x="168" y="26" width="64" height="34" rx="5" fill="#0d1f3c" stroke="#a78bfa" stroke-width="1.8"/>
  <text x="200" y="47" text-anchor="middle" fill="#a78bfa" font-size="9" font-family="monospace">root</text>
  <!-- Connector lines -->
  <line x1="200" y1="60" x2="200" y2="74" stroke="#a78bfa" stroke-width="1.3" stroke-dasharray="4,3"/>
  <line x1="200" y1="74" x2="126" y2="90" stroke="#a78bfa" stroke-width="1.3" stroke-dasharray="4,3"/>
  <line x1="200" y1="74" x2="200" y2="90" stroke="#a78bfa" stroke-width="1.3" stroke-dasharray="4,3"/>
  <line x1="200" y1="74" x2="274" y2="90" stroke="#a78bfa" stroke-width="1.3" stroke-dasharray="4,3"/>
  <!-- Child modules -->
  <rect x="94" y="90" width="64" height="34" rx="5" fill="#0d1f3c" stroke="#a78bfa" stroke-width="1.5" opacity="0.8"/>
  <text x="126" y="111" text-anchor="middle" fill="#a78bfa" font-size="9" font-family="monospace" opacity="0.8">vpc</text>
  <rect x="168" y="90" width="64" height="34" rx="5" fill="#0d1f3c" stroke="#a78bfa" stroke-width="1.5" opacity="0.8"/>
  <text x="200" y="111" text-anchor="middle" fill="#a78bfa" font-size="9" font-family="monospace" opacity="0.8">eks</text>
  <rect x="242" y="90" width="64" height="34" rx="5" fill="#0d1f3c" stroke="#a78bfa" stroke-width="1.5" opacity="0.8"/>
  <text x="274" y="111" text-anchor="middle" fill="#a78bfa" font-size="9" font-family="monospace" opacity="0.8">rds</text>
  <!-- Leaf modules (bottom) -->
  <line x1="200" y1="124" x2="200" y2="138" stroke="#a78bfa" stroke-width="1.3" stroke-dasharray="4,3" opacity="0.5"/>
  <rect x="168" y="138" width="64" height="28" rx="5" fill="#0d1f3c" stroke="#a78bfa" stroke-width="1.3" opacity="0.5"/>
  <text x="200" y="156" text-anchor="middle" fill="#a78bfa" font-size="8" font-family="monospace" opacity="0.5">iam</text>
</svg>