<svg xmlns="http://www.w3.org/2000/svg" viewBox="0 0 400 180">
  <rect width="400" height="180" fill="#0a1628"/>
  <rect width="400" height="26" fill="#0a1f3a"/>
  <text x="200" y="17" text-anchor="middle" fill="#00b4d8" font-size="10" font-family="monospace" font-weight="bold" letter-spacing="1">MULTI-CLOUD HYBRID ARCHITECTURE · AWS + AZURE</text>

  <!-- AWS Box -->
  <rect x="8" y="34" width="158" height="96" rx="5" fill="#0d1f3c" stroke="#ff9900" stroke-width="2"/>
  <text x="87" y="52" text-anchor="middle" fill="#ff9900" font-size="11" font-family="monospace" font-weight="bold">AWS</text>
  <rect x="18" y="58" width="138" height="14" rx="3" fill="#1e293b" stroke="#ff9900" stroke-width="0.8"/>
  <text x="87" y="69" text-anchor="middle" fill="#fbbf24" font-size="7.5" font-family="monospace">Transit Gateway · VPC</text>
  <rect x="18" y="76" width="65" height="14" rx="3" fill="#1e293b" stroke="#ff990080" stroke-width="0.8"/>
  <text x="50" y="87" text-anchor="middle" fill="#94a3b8" font-size="7" font-family="monospace">EKS · ECS</text>
  <rect x="91" y="76" width="65" height="14" rx="3" fill="#1e293b" stroke="#ff990080" stroke-width="0.8"/>
  <text x="123" y="87" text-anchor="middle" fill="#94a3b8" font-size="7" font-family="monospace">RDS Aurora</text>
  <rect x="18" y="94" width="65" height="14" rx="3" fill="#1e293b" stroke="#ff990080" stroke-width="0.8"/>
  <text x="50" y="105" text-anchor="middle" fill="#94a3b8" font-size="7" font-family="monospace">KMS · IAM</text>
  <rect x="91" y="94" width="65" height="14" rx="3" fill="#1e293b" stroke="#ff990080" stroke-width="0.8"/>
  <text x="123" y="105" text-anchor="middle" fill="#94a3b8" font-size="7" font-family="monospace">CloudFront</text>
  <rect x="18" y="112" width="138" height="12" rx="3" fill="#1e293b" stroke="#10b98180" stroke-width="0.8"/>
  <text x="87" y="122" text-anchor="middle" fill="#10b981" font-size="7" font-family="monospace">Security Hub · GuardDuty · Config</text>

  <!-- VPN connector -->
  <rect x="170" y="72" width="60" height="40" rx="4" fill="#0a1628" stroke="#00b4d8" stroke-width="1.5" stroke-dasharray="4,2"/>
  <text x="200" y="88" text-anchor="middle" fill="#00b4d8" font-size="7.5" font-family="monospace" font-weight="bold">VPN /</text>
  <text x="200" y="100" text-anchor="middle" fill="#00b4d8" font-size="7.5" font-family="monospace" font-weight="bold">Express</text>
  <line x1="168" y1="92" x2="170" y2="92" stroke="#00b4d8" stroke-width="1.5"/>
  <line x1="230" y1="92" x2="232" y2="92" stroke="#00b4d8" stroke-width="1.5"/>

  <!-- Azure Box -->
  <rect x="234" y="34" width="158" height="96" rx="5" fill="#0d1f3c" stroke="#0078d4" stroke-width="2"/>
  <text x="313" y="52" text-anchor="middle" fill="#60a5fa" font-size="11" font-family="monospace" font-weight="bold">AZURE</text>
  <rect x="244" y="58" width="138" height="14" rx="3" fill="#1e293b" stroke="#0078d4" stroke-width="0.8"/>
  <text x="313" y="69" text-anchor="middle" fill="#93c5fd" font-size="7.5" font-family="monospace">ExpressRoute · VNet</text>
  <rect x="244" y="76" width="65" height="14" rx="3" fill="#1e293b" stroke="#0078d480" stroke-width="0.8"/>
  <text x="276" y="87" text-anchor="middle" fill="#94a3b8" font-size="7" font-family="monospace">AKS · ACR</text>
  <rect x="317" y="76" width="65" height="14" rx="3" fill="#1e293b" stroke="#0078d480" stroke-width="0.8"/>
  <text x="349" y="87" text-anchor="middle" fill="#94a3b8" font-size="7" font-family="monospace">Azure SQL</text>
  <rect x="244" y="94" width="65" height="14" rx="3" fill="#1e293b" stroke="#0078d480" stroke-width="0.8"/>
  <text x="276" y="105" text-anchor="middle" fill="#94a3b8" font-size="7" font-family="monospace">Key Vault</text>
  <rect x="317" y="94" width="65" height="14" rx="3" fill="#1e293b" stroke="#0078d480" stroke-width="0.8"/>
  <text x="349" y="105" text-anchor="middle" fill="#94a3b8" font-size="7" font-family="monospace">Azure CDN</text>
  <rect x="244" y="112" width="138" height="12" rx="3" fill="#1e293b" stroke="#10b98180" stroke-width="0.8"/>
  <text x="313" y="122" text-anchor="middle" fill="#10b981" font-size="7" font-family="monospace">Defender · Sentinel · Policy</text>

  <!-- Stats -->
  <rect x="8" y="140" width="88" height="34" rx="4" fill="#0d2137" stroke="#ff9900" stroke-width="1.2"/>
  <text x="52" y="156" text-anchor="middle" fill="#ff9900" font-size="15" font-family="monospace" font-weight="bold">99.99%</text>
  <text x="52" y="169" text-anchor="middle" fill="#475569" font-size="7" font-family="sans-serif">AVAILABILITY</text>

  <rect x="108" y="140" width="88" height="34" rx="4" fill="#0d2137" stroke="#10b981" stroke-width="1.2"/>
  <text x="152" y="156" text-anchor="middle" fill="#10b981" font-size="15" font-family="monospace" font-weight="bold">SOC 2</text>
  <text x="152" y="169" text-anchor="middle" fill="#475569" font-size="7" font-family="sans-serif">COMPLIANT</text>

  <rect x="208" y="140" width="88" height="34" rx="4" fill="#0d2137" stroke="#0078d4" stroke-width="1.2"/>
  <text x="252" y="156" text-anchor="middle" fill="#60a5fa" font-size="15" font-family="monospace" font-weight="bold">2</text>
  <text x="252" y="169" text-anchor="middle" fill="#475569" font-size="7" font-family="sans-serif">CLOUD PROVIDERS</text>

  <rect x="308" y="140" width="84" height="34" rx="4" fill="#0d2137" stroke="#00b4d8" stroke-width="1.2"/>
  <text x="350" y="156" text-anchor="middle" fill="#00b4d8" font-size="12" font-family="monospace" font-weight="bold">Hybrid</text>
  <text x="350" y="169" text-anchor="middle" fill="#475569" font-size="7" font-family="sans-serif">ARCHITECTURE</text>
</svg>
