<svg xmlns="http://www.w3.org/2000/svg" viewBox="0 0 400 180">
  <rect width="400" height="180" fill="#0a1628"/>
  <rect width="400" height="26" fill="#0f2d4a"/>
  <text x="200" y="17" text-anchor="middle" fill="#1a73e8" font-size="10" font-family="monospace" font-weight="bold" letter-spacing="1">ENTERPRISE CLOUD MIGRATION · ON-PREM → AWS</text>

  <!-- On-Prem block -->
  <rect x="12" y="36" width="110" height="90" rx="5" fill="#0d1f3c" stroke="#475569" stroke-width="1.5"/>
  <text x="67" y="52" text-anchor="middle" fill="#94a3b8" font-size="8" font-family="monospace" font-weight="bold">ON-PREMISES</text>
  <rect x="22" y="58" width="90" height="14" rx="3" fill="#1e293b" stroke="#334155" stroke-width="1"/>
  <text x="67" y="69" text-anchor="middle" fill="#64748b" font-size="8" font-family="sans-serif">Legacy Monolith</text>
  <rect x="22" y="76" width="90" height="14" rx="3" fill="#1e293b" stroke="#334155" stroke-width="1"/>
  <text x="67" y="87" text-anchor="middle" fill="#64748b" font-size="8" font-family="sans-serif">On-Prem DB</text>
  <rect x="22" y="94" width="90" height="14" rx="3" fill="#1e293b" stroke="#334155" stroke-width="1"/>
  <text x="67" y="105" text-anchor="middle" fill="#64748b" font-size="8" font-family="sans-serif">Bare Metal Servers</text>

  <!-- Arrow -->
  <line x1="124" y1="81" x2="156" y2="81" stroke="#00b4d8" stroke-width="2" stroke-dasharray="4,3"/>
  <polygon points="156,76 168,81 156,86" fill="#00b4d8"/>
  <text x="145" y="73" text-anchor="middle" fill="#00b4d8" font-size="7" font-family="sans-serif">MIGRATE</text>
  <text x="145" y="96" text-anchor="middle" fill="#475569" font-size="7" font-family="sans-serif">6R Strategy</text>

  <!-- AWS Cloud -->
  <rect x="170" y="36" width="218" height="90" rx="5" fill="#0d1f3c" stroke="#ff9900" stroke-width="1.5"/>
  <text x="279" y="52" text-anchor="middle" fill="#ff9900" font-size="10" font-family="monospace" font-weight="bold">AWS CLOUD</text>
  <rect x="180" y="58" width="92" height="14" rx="3" fill="#1e293b" stroke="#ff9900" stroke-width="0.8"/>
  <text x="226" y="69" text-anchor="middle" fill="#fbbf24" font-size="7.5" font-family="monospace">ECS Fargate</text>
  <rect x="280" y="58" width="98" height="14" rx="3" fill="#1e293b" stroke="#ff9900" stroke-width="0.8"/>
  <text x="329" y="69" text-anchor="middle" fill="#fbbf24" font-size="7.5" font-family="monospace">RDS Aurora</text>
  <rect x="180" y="76" width="92" height="14" rx="3" fill="#1e293b" stroke="#ff9900" stroke-width="0.8"/>
  <text x="226" y="87" text-anchor="middle" fill="#fbbf24" font-size="7.5" font-family="monospace">CloudWatch</text>
  <rect x="280" y="76" width="98" height="14" rx="3" fill="#1e293b" stroke="#ff9900" stroke-width="0.8"/>
  <text x="329" y="87" text-anchor="middle" fill="#fbbf24" font-size="7.5" font-family="monospace">Terraform IaC</text>
  <rect x="180" y="94" width="198" height="14" rx="3" fill="#1e293b" stroke="#ff9900" stroke-width="0.8"/>
  <text x="279" y="105" text-anchor="middle" fill="#fbbf24" font-size="7.5" font-family="monospace">VPC · WAF · KMS · IAM Least-Privilege</text>

  <!-- Stats -->
  <rect x="12" y="136" width="85" height="36" rx="4" fill="#0d2137" stroke="#10b981" stroke-width="1.2"/>
  <text x="54" y="152" text-anchor="middle" fill="#10b981" font-size="16" font-family="monospace" font-weight="bold">35%</text>
  <text x="54" y="166" text-anchor="middle" fill="#475569" font-size="7" font-family="sans-serif">COST REDUCTION</text>

  <rect x="108" y="136" width="85" height="36" rx="4" fill="#0d2137" stroke="#1a73e8" stroke-width="1.2"/>
  <text x="150" y="152" text-anchor="middle" fill="#60a5fa" font-size="16" font-family="monospace" font-weight="bold">99.95%</text>
  <text x="150" y="166" text-anchor="middle" fill="#475569" font-size="7" font-family="sans-serif">UPTIME</text>

  <rect x="204" y="136" width="85" height="36" rx="4" fill="#0d2137" stroke="#00b4d8" stroke-width="1.2"/>
  <text x="246" y="152" text-anchor="middle" fill="#00b4d8" font-size="16" font-family="monospace" font-weight="bold">3 mo</text>
  <text x="246" y="166" text-anchor="middle" fill="#475569" font-size="7" font-family="sans-serif">TIMELINE</text>

  <rect x="300" y="136" width="88" height="36" rx="4" fill="#0d2137" stroke="#ff9900" stroke-width="1.2"/>
  <text x="344" y="152" text-anchor="middle" fill="#ff9900" font-size="14" font-family="monospace" font-weight="bold">SOC 2</text>
  <text x="344" y="166" text-anchor="middle" fill="#475569" font-size="7" font-family="sans-serif">COMPLIANT</text>
</svg>
