<svg xmlns="http://www.w3.org/2000/svg" viewBox="0 0 400 180">
  <rect width="400" height="180" fill="#0a1628"/>
  <rect width="400" height="26" fill="#0a1f3a"/>
  <text x="200" y="17" text-anchor="middle" fill="#10b981" font-size="10" font-family="monospace" font-weight="bold" letter-spacing="1">CLOUD SECURITY &amp; COMPLIANCE FRAMEWORK</text>

  <!-- Outer shield layer -->
  <rect x="8" y="34" width="384" height="96" rx="6" fill="#0d1f3c" stroke="#10b981" stroke-width="1.5"/>
  <text x="50" y="52" text-anchor="middle" fill="#10b981" font-size="8" font-family="monospace" font-weight="bold">PERIMETER</text>

  <!-- Layer 1: Perimeter -->
  <rect x="18" y="56" width="80" height="14" rx="3" fill="#0a2a1a" stroke="#10b981" stroke-width="1"/>
  <text x="58" y="67" text-anchor="middle" fill="#34d399" font-size="7.5" font-family="monospace">WAF · Shield</text>
  <rect x="18" y="74" width="80" height="14" rx="3" fill="#0a2a1a" stroke="#10b981" stroke-width="1"/>
  <text x="58" y="85" text-anchor="middle" fill="#34d399" font-size="7.5" font-family="monospace">GuardDuty</text>
  <rect x="18" y="92" width="80" height="14" rx="3" fill="#0a2a1a" stroke="#10b981" stroke-width="1"/>
  <text x="58" y="103" text-anchor="middle" fill="#34d399" font-size="7.5" font-family="monospace">CloudFront</text>
  <rect x="18" y="110" width="80" height="14" rx="3" fill="#0a2a1a" stroke="#10b98180" stroke-width="1"/>
  <text x="58" y="121" text-anchor="middle" fill="#64748b" font-size="7" font-family="monospace">VPC Endpoints</text>

  <!-- Divider -->
  <line x1="106" y1="36" x2="106" y2="128" stroke="#1e3a5f" stroke-width="1"/>

  <!-- Layer 2: Identity -->
  <text x="170" y="52" text-anchor="middle" fill="#fbbf24" font-size="8" font-family="monospace" font-weight="bold">IDENTITY</text>
  <rect x="114" y="56" width="108" height="14" rx="3" fill="#2a1f0a" stroke="#fbbf24" stroke-width="1"/>
  <text x="168" y="67" text-anchor="middle" fill="#fbbf24" font-size="7.5" font-family="monospace">IAM Least-Privilege</text>
  <rect x="114" y="74" width="108" height="14" rx="3" fill="#2a1f0a" stroke="#fbbf24" stroke-width="1"/>
  <text x="168" y="85" text-anchor="middle" fill="#fbbf24" font-size="7.5" font-family="monospace">MFA · SSO</text>
  <rect x="114" y="92" width="108" height="14" rx="3" fill="#2a1f0a" stroke="#fbbf24" stroke-width="1"/>
  <text x="168" y="103" text-anchor="middle" fill="#fbbf24" font-size="7.5" font-family="monospace">Secrets Manager</text>
  <rect x="114" y="110" width="108" height="14" rx="3" fill="#2a1f0a" stroke="#fbbf2480" stroke-width="1"/>
  <text x="168" y="121" text-anchor="middle" fill="#64748b" font-size="7" font-family="monospace">RBAC · SCPs</text>

  <!-- Divider -->
  <line x1="230" y1="36" x2="230" y2="128" stroke="#1e3a5f" stroke-width="1"/>

  <!-- Layer 3: Data -->
  <text x="292" y="52" text-anchor="middle" fill="#a78bfa" font-size="8" font-family="monospace" font-weight="bold">DATA &amp; AUDIT</text>
  <rect x="238" y="56" width="100" height="14" rx="3" fill="#1a0a2a" stroke="#a78bfa" stroke-width="1"/>
  <text x="288" y="67" text-anchor="middle" fill="#c4b5fd" font-size="7.5" font-family="monospace">KMS Encryption</text>
  <rect x="238" y="74" width="100" height="14" rx="3" fill="#1a0a2a" stroke="#a78bfa" stroke-width="1"/>
  <text x="288" y="85" text-anchor="middle" fill="#c4b5fd" font-size="7.5" font-family="monospace">CloudTrail</text>
  <rect x="238" y="92" width="100" height="14" rx="3" fill="#1a0a2a" stroke="#a78bfa" stroke-width="1"/>
  <text x="288" y="103" text-anchor="middle" fill="#c4b5fd" font-size="7.5" font-family="monospace">AWS Config</text>
  <rect x="238" y="110" width="100" height="14" rx="3" fill="#1a0a2a" stroke="#a78bfa80" stroke-width="1"/>
  <text x="288" y="121" text-anchor="middle" fill="#64748b" font-size="7" font-family="monospace">Security Hub</text>

  <!-- Divider -->
  <line x1="346" y1="36" x2="346" y2="128" stroke="#1e3a5f" stroke-width="1"/>

  <!-- Compliance badges -->
  <text x="373" y="65" text-anchor="middle" fill="#ef4444" font-size="8" font-family="monospace" font-weight="bold">ISO</text>
  <text x="373" y="77" text-anchor="middle" fill="#ef4444" font-size="7" font-family="monospace">27001</text>
  <text x="373" y="95" text-anchor="middle" fill="#f97316" font-size="8" font-family="monospace" font-weight="bold">SOC 2</text>
  <text x="373" y="113" text-anchor="middle" fill="#22c55e" font-size="8" font-family="monospace" font-weight="bold">HIPAA</text>

  <!-- Stats -->
  <rect x="8" y="140" width="90" height="34" rx="4" fill="#0d2137" stroke="#10b981" stroke-width="1.2"/>
  <text x="53" y="156" text-anchor="middle" fill="#10b981" font-size="15" font-family="monospace" font-weight="bold">100%</text>
  <text x="53" y="169" text-anchor="middle" fill="#475569" font-size="7" font-family="sans-serif">AUDIT PASS</text>

  <rect x="110" y="140" width="90" height="34" rx="4" fill="#0d2137" stroke="#fbbf24" stroke-width="1.2"/>
  <text x="155" y="156" text-anchor="middle" fill="#fbbf24" font-size="15" font-family="monospace" font-weight="bold">45%</text>
  <text x="155" y="169" text-anchor="middle" fill="#475569" font-size="7" font-family="sans-serif">FASTER DETECT</text>

  <rect x="212" y="140" width="90" height="34" rx="4" fill="#0d2137" stroke="#a78bfa" stroke-width="1.2"/>
  <text x="257" y="156" text-anchor="middle" fill="#a78bfa" font-size="14" font-family="monospace" font-weight="bold">Zero</text>
  <text x="257" y="169" text-anchor="middle" fill="#475569" font-size="7" font-family="sans-serif">TRUST MODEL</text>

  <rect x="314" y="140" width="78" height="34" rx="4" fill="#0d2137" stroke="#ef4444" stroke-width="1.2"/>
  <text x="353" y="156" text-anchor="middle" fill="#ef4444" font-size="14" font-family="monospace" font-weight="bold">HIPAA</text>
  <text x="353" y="169" text-anchor="middle" fill="#475569" font-size="7" font-family="sans-serif">COMPLIANT</text>
</svg>
