<svg xmlns="http://www.w3.org/2000/svg" viewBox="0 0 400 180">
  <rect width="400" height="180" fill="#0a1628"/>
  <rect width="400" height="26" fill="#0a1f3a"/>
  <text x="200" y="17" text-anchor="middle" fill="#326ce5" font-size="10" font-family="monospace" font-weight="bold" letter-spacing="1">CI/CD PIPELINE · KUBERNETES DEPLOYMENT PLATFORM</text>

  <!-- Stage boxes -->
  <!-- Git -->
  <rect x="8" y="36" width="60" height="56" rx="4" fill="#0d1f3c" stroke="#f97316" stroke-width="1.5"/>
  <text x="38" y="56" text-anchor="middle" fill="#f97316" font-size="9" font-family="monospace" font-weight="bold">GIT</text>
  <text x="38" y="70" text-anchor="middle" fill="#64748b" font-size="7" font-family="sans-serif">Push</text>
  <text x="38" y="82" text-anchor="middle" fill="#64748b" font-size="7" font-family="sans-serif">Commit</text>

  <polygon points="70,64 80,58 80,70" fill="#475569"/>

  <!-- Actions -->
  <rect x="82" y="36" width="60" height="56" rx="4" fill="#0d1f3c" stroke="#2196f3" stroke-width="1.5"/>
  <text x="112" y="52" text-anchor="middle" fill="#60a5fa" font-size="8" font-family="monospace" font-weight="bold">GitHub</text>
  <text x="112" y="64" text-anchor="middle" fill="#60a5fa" font-size="8" font-family="monospace" font-weight="bold">Actions</text>
  <text x="112" y="78" text-anchor="middle" fill="#64748b" font-size="7" font-family="sans-serif">Lint · Test</text>
  <text x="112" y="88" text-anchor="middle" fill="#64748b" font-size="7" font-family="sans-serif">Scan</text>

  <polygon points="144,64 154,58 154,70" fill="#475569"/>

  <!-- Docker -->
  <rect x="156" y="36" width="60" height="56" rx="4" fill="#0d1f3c" stroke="#00b4d8" stroke-width="1.5"/>
  <text x="186" y="52" text-anchor="middle" fill="#00b4d8" font-size="8" font-family="monospace" font-weight="bold">Docker</text>
  <text x="186" y="64" text-anchor="middle" fill="#00b4d8" font-size="8" font-family="monospace" font-weight="bold">Build</text>
  <text x="186" y="78" text-anchor="middle" fill="#64748b" font-size="7" font-family="sans-serif">Multi-stage</text>
  <text x="186" y="88" text-anchor="middle" fill="#64748b" font-size="7" font-family="sans-serif">ECR Push</text>

  <polygon points="218,64 228,58 228,70" fill="#475569"/>

  <!-- ArgoCD -->
  <rect x="230" y="36" width="60" height="56" rx="4" fill="#0d1f3c" stroke="#ef4444" stroke-width="1.5"/>
  <text x="260" y="52" text-anchor="middle" fill="#f87171" font-size="8" font-family="monospace" font-weight="bold">ArgoCD</text>
  <text x="260" y="64" text-anchor="middle" fill="#f87171" font-size="8" font-family="monospace" font-weight="bold">GitOps</text>
  <text x="260" y="78" text-anchor="middle" fill="#64748b" font-size="7" font-family="sans-serif">Helm</text>
  <text x="260" y="88" text-anchor="middle" fill="#64748b" font-size="7" font-family="sans-serif">Sync</text>

  <polygon points="292,64 302,58 302,70" fill="#475569"/>

  <!-- EKS -->
  <rect x="304" y="36" width="88" height="56" rx="4" fill="#0d1f3c" stroke="#326ce5" stroke-width="2"/>
  <text x="348" y="52" text-anchor="middle" fill="#326ce5" font-size="9" font-family="monospace" font-weight="bold">Amazon EKS</text>
  <text x="348" y="65" text-anchor="middle" fill="#94a3b8" font-size="7" font-family="sans-serif">Pods · Services</text>
  <text x="348" y="76" text-anchor="middle" fill="#94a3b8" font-size="7" font-family="sans-serif">Ingress · HPA</text>
  <text x="348" y="87" text-anchor="middle" fill="#64748b" font-size="7" font-family="sans-serif">Istio Mesh</text>

  <!-- Monitoring bar -->
  <rect x="8" y="102" width="384" height="24" rx="4" fill="#0d2137" stroke="#10b981" stroke-width="1"/>
  <text x="60" y="118" text-anchor="middle" fill="#10b981" font-size="8" font-family="monospace">Prometheus</text>
  <text x="150" y="118" text-anchor="middle" fill="#10b981" font-size="8" font-family="monospace">Grafana</text>
  <text x="240" y="118" text-anchor="middle" fill="#10b981" font-size="8" font-family="monospace">PagerDuty</text>
  <text x="340" y="118" text-anchor="middle" fill="#10b981" font-size="8" font-family="monospace">CloudWatch</text>
  <line x1="100" y1="108" x2="100" y2="120" stroke="#1e3a5f" stroke-width="1"/>
  <line x1="195" y1="108" x2="195" y2="120" stroke="#1e3a5f" stroke-width="1"/>
  <line x1="290" y1="108" x2="290" y2="120" stroke="#1e3a5f" stroke-width="1"/>

  <!-- Stats -->
  <rect x="8" y="136" width="90" height="36" rx="4" fill="#0d2137" stroke="#f97316" stroke-width="1.2"/>
  <text x="53" y="153" text-anchor="middle" fill="#f97316" font-size="16" font-family="monospace" font-weight="bold">10x</text>
  <text x="53" y="166" text-anchor="middle" fill="#475569" font-size="7" font-family="sans-serif">DEPLOY FREQ</text>

  <rect x="110" y="136" width="90" height="36" rx="4" fill="#0d2137" stroke="#10b981" stroke-width="1.2"/>
  <text x="155" y="153" text-anchor="middle" fill="#10b981" font-size="16" font-family="monospace" font-weight="bold">0</text>
  <text x="155" y="166" text-anchor="middle" fill="#475569" font-size="7" font-family="sans-serif">DOWNTIME DEPLOYS</text>

  <rect x="212" y="136" width="90" height="36" rx="4" fill="#0d2137" stroke="#326ce5" stroke-width="1.2"/>
  <text x="257" y="153" text-anchor="middle" fill="#60a5fa" font-size="16" font-family="monospace" font-weight="bold">80%</text>
  <text x="257" y="166" text-anchor="middle" fill="#475569" font-size="7" font-family="sans-serif">FASTER PROV.</text>

  <rect x="314" y="136" width="78" height="36" rx="4" fill="#0d2137" stroke="#00b4d8" stroke-width="1.2"/>
  <text x="353" y="153" text-anchor="middle" fill="#00b4d8" font-size="14" font-family="monospace" font-weight="bold">GitOps</text>
  <text x="353" y="166" text-anchor="middle" fill="#475569" font-size="7" font-family="sans-serif">FULL CYCLE</text>
</svg>
